<svg width="32" height="32" viewBox="0 0 32 32" fill="none" xmlns="http://www.w3.org/2000/svg">
<path d="M29.2934 24.4398C29.2934 24.9198 29.1867 25.4132 28.96 25.8932C28.7334 26.3732 28.44 26.8265 28.0534 27.2532C27.4 27.9732 26.68 28.4932 25.8667 28.8265C25.0667 29.1598 24.2 29.3332 23.2667 29.3332C21.9067 29.3332 20.4534 29.0132 18.92 28.3598C17.3867 27.7065 15.8534 26.8265 14.3334 25.7198C12.8 24.5998 11.3467 23.3598 9.96002 21.9865C8.58669 20.5998 7.34669 19.1465 6.24002 17.6265C5.14669 16.1065 4.26669 14.5865 3.62669 13.0798C2.98669 11.5598 2.66669 10.1065 2.66669 8.71984C2.66669 7.81317 2.82669 6.9465 3.14669 6.1465C3.46669 5.33317 3.97335 4.5865 4.68002 3.91984C5.53335 3.07984 6.46669 2.6665 7.45335 2.6665C7.82669 2.6665 8.20002 2.7465 8.53335 2.9065C8.88002 3.0665 9.18669 3.3065 9.42669 3.65317L12.52 8.01317C12.76 8.3465 12.9334 8.65317 13.0534 8.9465C13.1734 9.2265 13.24 9.5065 13.24 9.75984C13.24 10.0798 13.1467 10.3998 12.96 10.7065C12.7867 11.0132 12.5334 11.3332 12.2134 11.6532L11.2 12.7065C11.0534 12.8532 10.9867 13.0265 10.9867 13.2398C10.9867 13.3465 11 13.4398 11.0267 13.5465C11.0667 13.6532 11.1067 13.7332 11.1334 13.8132C11.3734 14.2532 11.7867 14.8265 12.3734 15.5198C12.9734 16.2132 13.6134 16.9198 14.3067 17.6265C15.0267 18.3332 15.72 18.9865 16.4267 19.5865C17.12 20.1732 17.6934 20.5732 18.1467 20.8132C18.2134 20.8398 18.2934 20.8798 18.3867 20.9198C18.4934 20.9598 18.6 20.9732 18.72 20.9732C18.9467 20.9732 19.12 20.8932 19.2667 20.7465L20.28 19.7465C20.6134 19.4132 20.9334 19.1598 21.24 18.9998C21.5467 18.8132 21.8534 18.7198 22.1867 18.7198C22.44 18.7198 22.7067 18.7732 23 18.8932C23.2934 19.0132 23.6 19.1865 23.9334 19.4132L28.3467 22.5465C28.6934 22.7865 28.9334 23.0665 29.08 23.3998C29.2134 23.7332 29.2934 24.0665 29.2934 24.4398Z" stroke="#DCDCDC" stroke-width="2" stroke-miterlimit="10"/>
<path d="M24.6667 11.9997C24.6667 11.1997 24.04 9.97301 23.1067 8.97301C22.2533 8.05301 21.12 7.33301 20 7.33301" stroke="#DCDCDC" stroke-width="2" stroke-linecap="round" stroke-linejoin="round"/>
<path d="M29.3333 11.9998C29.3333 6.83984 25.16 2.6665 20 2.6665" stroke="#DCDCDC" stroke-width="2" stroke-linecap="round" stroke-linejoin="round"/>
</svg>
