<svg width="24" height="24" viewBox="0 0 24 24" fill="none" xmlns="http://www.w3.org/2000/svg">
<path fill-rule="evenodd" clip-rule="evenodd" d="M12.6968 3.2962C14.8212 3.40061 16.8007 4.27663 18.3126 5.78956C19.9253 7.40328 20.813 9.54835 20.8121 11.8295C20.8102 16.537 16.978 20.3671 12.2702 20.3671C10.4999 20.3671 9.0931 19.8232 8.18472 19.328L3.65649 20.5152L4.86835 16.091C4.12084 14.7962 3.7275 13.3276 3.72812 11.8228C3.73001 7.11545 7.56192 3.28564 12.2701 3.28564L12.6968 3.2962ZM8.39449 17.7824L8.65379 17.9361C9.74385 18.5827 10.9933 18.9248 12.2673 18.9253H12.2702C16.1834 18.9253 19.3683 15.7419 19.3699 11.829C19.3706 9.93295 18.6328 8.15005 17.2924 6.80876C15.9519 5.46739 14.1694 4.72826 12.273 4.72764C8.35685 4.72764 5.1719 7.91073 5.17034 11.8232C5.16981 13.1641 5.54514 14.47 6.25584 15.5997L6.42464 15.8683L5.70742 18.4869L8.39449 17.7824ZM16.5736 13.8598C16.5202 13.7707 16.378 13.7174 16.1645 13.6106C15.9511 13.5038 14.9018 12.9877 14.7061 12.9165C14.5105 12.8454 14.3682 12.8098 14.2259 13.0233C14.0837 13.2368 13.6746 13.7174 13.5501 13.8598C13.4256 14.0021 13.3011 14.0199 13.0877 13.9132C12.8743 13.8064 12.1865 13.5811 11.3713 12.8543C10.7368 12.2886 10.3085 11.5901 10.1839 11.3765C10.0595 11.163 10.1707 11.0475 10.2775 10.9411C10.3735 10.8455 10.491 10.692 10.5977 10.5674C10.7044 10.4429 10.74 10.3538 10.8111 10.2115C10.8823 10.0691 10.8467 9.94457 10.7933 9.83779C10.74 9.73096 10.3131 8.68091 10.1353 8.25376C9.962 7.83782 9.78605 7.89413 9.65504 7.88756C9.5307 7.8814 9.38827 7.88005 9.24601 7.88005C9.10371 7.88005 8.87248 7.9334 8.67684 8.14701C8.4812 8.36055 7.92982 8.8767 7.92982 9.92667C7.92982 10.9768 8.69463 11.9911 8.80135 12.1335C8.90807 12.2759 10.3064 14.4305 12.4474 15.3547C12.9566 15.5745 13.3542 15.7057 13.6641 15.804C14.1755 15.9664 14.6407 15.9435 15.0085 15.8886C15.4185 15.8273 16.2713 15.3725 16.4491 14.8742C16.627 14.3758 16.627 13.9487 16.5736 13.8598Z" fill="black"/>
</svg>
