<svg width="32" height="32" viewBox="0 0 32 32" fill="none" xmlns="http://www.w3.org/2000/svg">
<path d="M24.1867 28.8265C23.0134 29.1732 21.6267 29.3332 20 29.3332H12C10.3734 29.3332 8.98669 29.1732 7.81335 28.8265C8.10669 25.3598 11.6667 22.6265 16 22.6265C20.3334 22.6265 23.8934 25.3598 24.1867 28.8265Z" stroke="#DCDCDC" stroke-width="2" stroke-linecap="round" stroke-linejoin="round"/>
<path d="M20 2.6665H12C5.33335 2.6665 2.66669 5.33317 2.66669 11.9998V19.9998C2.66669 25.0398 4.18669 27.7998 7.81335 28.8265C8.10669 25.3598 11.6667 22.6265 16 22.6265C20.3334 22.6265 23.8934 25.3598 24.1867 28.8265C27.8134 27.7998 29.3334 25.0398 29.3334 19.9998V11.9998C29.3334 5.33317 26.6667 2.6665 20 2.6665ZM16 18.8931C13.36 18.8931 11.2267 16.7465 11.2267 14.1065C11.2267 11.4665 13.36 9.33317 16 9.33317C18.64 9.33317 20.7734 11.4665 20.7734 14.1065C20.7734 16.7465 18.64 18.8931 16 18.8931Z" stroke="#DCDCDC" stroke-width="2" stroke-linecap="round" stroke-linejoin="round"/>
<path d="M20.7734 14.1069C20.7734 16.7469 18.64 18.8935 16 18.8935C13.36 18.8935 11.2267 16.7469 11.2267 14.1069C11.2267 11.4669 13.36 9.3335 16 9.3335C18.64 9.3335 20.7734 11.4669 20.7734 14.1069Z" stroke="#DCDCDC" stroke-width="2" stroke-linecap="round" stroke-linejoin="round"/>
</svg>
