<svg width="24" height="24" viewBox="0 0 24 24" fill="none" xmlns="http://www.w3.org/2000/svg">
<path d="M14.8671 8.60455C14.0898 7.86137 13.1012 7.48296 12 7.48296C10.0466 7.48296 8.39319 8.80228 7.80342 10.575C7.65342 11.025 7.56819 11.5057 7.56819 12C7.56819 12.4943 7.65341 12.975 7.8034 13.425C8.39318 15.1977 10.0466 16.517 12 16.517C13.0091 16.517 13.8682 16.2511 14.5398 15.8011C15.3341 15.2693 15.8625 14.475 16.0364 13.5375H12V10.6364H19.0637C19.1523 11.1273 19.2 11.6387 19.2 12.1705C19.2 14.4546 18.3818 16.3773 16.9637 17.683C15.7227 18.8284 14.025 19.5 12 19.5C9.0682 19.5 6.53184 17.8193 5.29774 15.3682C4.78979 14.3557 4.5 13.2103 4.5 12C4.5 10.7898 4.78977 9.64434 5.29773 8.63184C6.53182 6.1807 9.06819 4.5 12 4.5C14.0216 4.5 15.7193 5.24318 17.0182 6.45341L14.8671 8.60455Z" fill="#252525"/>
</svg>
