<svg width="32" height="32" viewBox="0 0 32 32" fill="none" xmlns="http://www.w3.org/2000/svg">
<path d="M22.6667 13.3332H25.3334C28 13.3332 29.3334 11.9998 29.3334 9.33317V6.6665C29.3334 3.99984 28 2.6665 25.3334 2.6665H22.6667C20 2.6665 18.6667 3.99984 18.6667 6.6665V9.33317C18.6667 11.9998 20 13.3332 22.6667 13.3332Z" stroke="#5F5F5F" stroke-width="2" stroke-miterlimit="10" stroke-linecap="round" stroke-linejoin="round"/>
<path d="M6.66669 29.3332H9.33335C12 29.3332 13.3334 27.9998 13.3334 25.3332V22.6665C13.3334 19.9998 12 18.6665 9.33335 18.6665H6.66669C4.00002 18.6665 2.66669 19.9998 2.66669 22.6665V25.3332C2.66669 27.9998 4.00002 29.3332 6.66669 29.3332Z" stroke="#5F5F5F" stroke-width="2" stroke-miterlimit="10" stroke-linecap="round" stroke-linejoin="round"/>
<path d="M8.00002 13.3332C10.9455 13.3332 13.3334 10.9454 13.3334 7.99984C13.3334 5.05432 10.9455 2.6665 8.00002 2.6665C5.0545 2.6665 2.66669 5.05432 2.66669 7.99984C2.66669 10.9454 5.0545 13.3332 8.00002 13.3332Z" stroke="#5F5F5F" stroke-width="2" stroke-miterlimit="10" stroke-linecap="round" stroke-linejoin="round"/>
<path d="M24 29.3332C26.9455 29.3332 29.3334 26.9454 29.3334 23.9998C29.3334 21.0543 26.9455 18.6665 24 18.6665C21.0545 18.6665 18.6667 21.0543 18.6667 23.9998C18.6667 26.9454 21.0545 29.3332 24 29.3332Z" stroke="#5F5F5F" stroke-width="2" stroke-miterlimit="10" stroke-linecap="round" stroke-linejoin="round"/>
</svg>
