<svg width="32" height="32" viewBox="0 0 32 32" fill="none" xmlns="http://www.w3.org/2000/svg">
<path fill-rule="evenodd" clip-rule="evenodd" d="M6.27551 4.66672C5.38695 4.66672 4.66663 5.38704 4.66663 6.2756V25.7244C4.66663 26.613 5.38695 27.3333 6.27551 27.3333H25.7244C26.613 27.3333 27.3333 26.613 27.3333 25.7244V6.2756C27.3333 5.38704 26.613 4.66672 25.7244 4.66672H6.27551ZM9.75425 11.7059C10.8402 11.7059 11.7206 10.8255 11.7206 9.73953C11.7206 8.65356 10.8402 7.7732 9.75425 7.7732C8.66828 7.7732 7.78792 8.65356 7.78792 9.73953C7.78792 10.8255 8.66828 11.7059 9.75425 11.7059ZM13.5214 13.159H16.7802V14.6519C16.7802 14.6519 17.6646 12.8833 20.0707 12.8833C22.2171 12.8833 23.9951 13.9406 23.9951 17.1635V23.9597H20.618V17.987C20.618 16.0858 19.603 15.8767 18.8296 15.8767C17.2244 15.8767 16.9496 17.2613 16.9496 18.235V23.9597H13.5214V13.159ZM11.4684 13.159H8.04015V23.9597H11.4684V13.159Z" fill="white"/>
</svg>
