<svg width="32" height="32" viewBox="0 0 32 32" fill="none" xmlns="http://www.w3.org/2000/svg">
<path fill-rule="evenodd" clip-rule="evenodd" d="M6.27557 4.66671C5.38701 4.66671 4.66669 5.38703 4.66669 6.27559V25.7244C4.66669 26.613 5.38701 27.3333 6.27557 27.3333H25.7245C26.613 27.3333 27.3334 26.613 27.3334 25.7244V6.27559C27.3334 5.38703 26.613 4.66671 25.7245 4.66671H6.27557ZM9.75431 11.7058C10.8403 11.7058 11.7206 10.8255 11.7206 9.73952C11.7206 8.65355 10.8403 7.77319 9.75431 7.77319C8.66834 7.77319 7.78798 8.65355 7.78798 9.73952C7.78798 10.8255 8.66834 11.7058 9.75431 11.7058ZM13.5215 13.159H16.7803V14.6519C16.7803 14.6519 17.6646 12.8832 20.0708 12.8832C22.2171 12.8832 23.9952 13.9406 23.9952 17.1635V23.9597H20.6181V17.987C20.6181 16.0858 19.6031 15.8767 18.8296 15.8767C17.2245 15.8767 16.9497 17.2613 16.9497 18.235V23.9597H13.5215V13.159ZM11.4684 13.159H8.04021V23.9597H11.4684V13.159Z" fill="black"/>
</svg>
