<svg width="32" height="32" viewBox="0 0 32 32" fill="none" xmlns="http://www.w3.org/2000/svg">
<path d="M24.434 7.48398L5.16847 14.9147C3.85357 15.4423 3.86136 16.1757 4.9288 16.5027L9.73367 18.0024L11.5721 23.639C11.7956 24.2559 11.6854 24.5006 12.3333 24.5006C12.8332 24.5006 13.055 24.2726 13.3335 24.0006C13.5105 23.8273 14.5619 22.8052 15.7357 21.6639L20.7337 25.3566C21.6534 25.864 22.3175 25.6011 22.5465 24.5024L25.8273 9.04213C26.1632 7.69546 25.3139 7.08462 24.434 7.48398ZM10.4877 17.6578L21.3179 10.825C21.8586 10.4971 22.3543 10.6734 21.9473 11.0347L12.6738 19.4017L12.3127 23.2529L10.4877 17.6578Z" fill="black"/>
</svg>
