<svg width="32" height="32" viewBox="0 0 32 32" fill="none" xmlns="http://www.w3.org/2000/svg">
<path d="M24.4339 7.48399L5.16841 14.9147C3.8535 15.4423 3.8613 16.1757 4.92874 16.5027L9.73361 18.0024L11.5721 23.639C11.7956 24.2559 11.6854 24.5006 12.3332 24.5006C12.8332 24.5006 13.0549 24.2726 13.3334 24.0006C13.5105 23.8273 14.5618 22.8052 15.7357 21.6639L20.7337 25.3566C21.6533 25.864 22.3174 25.6011 22.5464 24.5024L25.8272 9.04214C26.1631 7.69547 25.3138 7.08463 24.4339 7.48399ZM10.4877 17.6579L21.3179 10.825C21.8585 10.4971 22.3543 10.6734 21.9472 11.0347L12.6738 19.4017L12.3127 23.2529L10.4877 17.6579V17.6579Z" fill="white"/>
</svg>
